<?xml version="1.0" encoding="UTF-8"?>
<!DOCTYPE svg PUBLIC "-//W3C//DTD SVG 1.1//EN" "http://www.w3.org/Graphics/SVG/1.1/DTD/svg11.dtd">
<svg xmlns="http://www.w3.org/2000/svg" version="1.1" width="500px" height="500px" style="shape-rendering:geometricPrecision; text-rendering:geometricPrecision; image-rendering:optimizeQuality; fill-rule:evenodd; clip-rule:evenodd" xmlns:xlink="http://www.w3.org/1999/xlink">
<g><path style="opacity:1" fill="#0363ac" d="M 132.5,176.5 C 132.337,178.857 132.503,181.19 133,183.5C 138.319,190.247 140.152,197.914 138.5,206.5C 139.247,206.736 140.08,207.07 141,207.5C 141.333,206.167 141.667,204.833 142,203.5C 142.159,211.047 142.326,218.547 142.5,226C 140.515,233.275 138.848,240.442 137.5,247.5C 136.849,246.909 136.182,246.243 135.5,245.5C 134.534,247.396 134.201,249.396 134.5,251.5C 133.5,251.5 132.5,251.5 131.5,251.5C 129.951,256.719 126.617,260.386 121.5,262.5C 120.37,263.622 119.703,264.956 119.5,266.5C 118.564,267.974 117.23,268.974 115.5,269.5C 114.511,274.975 114.178,280.642 114.5,286.5C 118.5,286.5 122.5,286.5 126.5,286.5C 128.08,283.818 129.246,280.818 130,277.5C 131.092,280.044 131.759,282.711 132,285.5C 132.9,286.77 134.066,287.77 135.5,288.5C 134.846,290.115 134.346,291.782 134,293.5C 133.333,292.167 132.667,292.167 132,293.5C 131.506,295.134 131.34,296.801 131.5,298.5C 133.346,298.222 134.68,298.889 135.5,300.5C 135.472,303.997 135.306,307.664 135,311.5C 133.809,314.534 131.642,316.201 128.5,316.5C 128.567,317.959 128.234,319.292 127.5,320.5C 127.167,320.5 126.833,320.5 126.5,320.5C 124.833,320.5 123.167,320.5 121.5,320.5C 121.123,325.898 118.456,329.732 113.5,332C 110.35,332.813 107.516,333.646 105,334.5C 102.152,334.202 99.3189,333.869 96.5,333.5C 95.7659,332.292 95.4326,330.959 95.5,329.5C 91.2664,328.932 88.5997,326.598 87.5,322.5C 86.5,322.5 85.5,322.5 84.5,322.5C 85.0465,319.538 84.5465,316.538 83,313.5C 82.1705,308.136 82.3372,302.802 83.5,297.5C 84.6869,296.106 85.3535,296.273 85.5,298C 84.8743,303.044 84.5409,307.71 84.5,312C 85.745,312.791 87.0783,313.291 88.5,313.5C 89.3587,317.274 90.3587,320.941 91.5,324.5C 93.2915,324.366 94.9582,324.699 96.5,325.5C 100.33,327 104.33,327.667 108.5,327.5C 113.666,327.163 117.333,324.663 119.5,320C 117.212,319.178 114.878,318.511 112.5,318C 110.95,315.475 108.783,313.641 106,312.5C 103.854,306.448 102.854,300.115 103,293.5C 100.961,292.022 100.128,290.022 100.5,287.5C 103.518,287.665 106.518,287.498 109.5,287C 108.934,286.005 108.267,285.172 107.5,284.5C 107.5,283.833 107.5,283.167 107.5,282.5C 108.82,279.101 108.82,275.601 107.5,272C 103.499,272.913 99.3326,273.746 95,274.5C 93.7387,274.241 92.7387,273.574 92,272.5C 89.5996,279.892 87.5996,287.225 86,294.5C 84.6463,290.637 84.1463,286.637 84.5,282.5C 84.6646,280.173 85.3313,278.007 86.5,276C 83.98,274.303 81.6467,272.47 79.5,270.5C 78.8443,268.516 78.1776,266.516 77.5,264.5C 79.3575,262.059 80.0242,259.559 79.5,257C 78.0039,256.493 76.8373,256.993 76,258.5C 75.5,258 75,257.5 74.5,257C 76.8483,255.312 77.0149,253.478 75,251.5C 73.3687,254.149 71.0354,255.816 68,256.5C 66.6658,253.088 64.8325,250.088 62.5,247.5C 60.7615,239.01 60.2615,230.344 61,221.5C 62.5574,217.189 64.0574,212.856 65.5,208.5C 71.6726,199.289 78.0059,190.289 84.5,181.5C 85.8333,179.5 87.5,177.833 89.5,176.5C 90.8734,176.657 92.2068,176.49 93.5,176C 96.5,173 99.5,170 102.5,167C 104.087,166.138 105.754,165.471 107.5,165C 108.923,160.576 111.757,157.41 116,155.5C 119.359,157.87 122.026,160.87 124,164.5C 124.684,165.784 124.517,166.951 123.5,168C 124.5,168.333 125.5,168.667 126.5,169C 127.212,172.62 129.212,175.12 132.5,176.5 Z M 111.5,229.5 C 105.755,236.651 100.755,244.318 96.5,252.5C 95.7093,250.691 95.7093,248.691 96.5,246.5C 97.5005,241.165 98.5005,235.832 99.5,230.5C 100.451,229.081 100.784,227.415 100.5,225.5C 98.901,225.232 97.5676,225.566 96.5,226.5C 93.1667,226.5 89.8333,226.5 86.5,226.5C 86.5,226.167 86.5,225.833 86.5,225.5C 92.8346,215.499 99.1679,205.499 105.5,195.5C 107.173,194.657 108.34,193.324 109,191.5C 109.167,192.5 109.333,193.5 109.5,194.5C 107.522,201.722 106.189,209.055 105.5,216.5C 109.884,216.174 114.217,216.508 118.5,217.5C 115.639,221.227 113.305,225.227 111.5,229.5 Z"/></g>
<g><path style="opacity:1" fill="#396b9b" d="M 132.5,176.5 C 129.212,175.12 127.212,172.62 126.5,169C 125.5,168.667 124.5,168.333 123.5,168C 124.517,166.951 124.684,165.784 124,164.5C 122.026,160.87 119.359,157.87 116,155.5C 111.757,157.41 108.923,160.576 107.5,165C 105.754,165.471 104.087,166.138 102.5,167C 99.5,170 96.5,173 93.5,176C 92.2068,176.49 90.8734,176.657 89.5,176.5C 98.6461,167.974 107.813,159.307 117,150.5C 123.462,158.428 128.628,167.095 132.5,176.5 Z"/></g>
<g><path style="opacity:1" fill="#3c6fa1" d="M 105.5,195.5 C 99.1679,205.499 92.8346,215.499 86.5,225.5C 85.9717,224.153 85.805,222.819 86,221.5C 90.1352,216.882 93.6352,211.882 96.5,206.5C 95.6518,204.591 95.3184,202.591 95.5,200.5C 98.8067,198.88 102.14,197.213 105.5,195.5 Z"/></g>
<g><path style="opacity:1" fill="#376a9b" d="M 84.5,181.5 C 78.0059,190.289 71.6726,199.289 65.5,208.5C 64.0574,212.856 62.5574,217.189 61,221.5C 60.2615,230.344 60.7615,239.01 62.5,247.5C 60.6031,245.302 59.6031,242.636 59.5,239.5C 59.5,233.167 59.5,226.833 59.5,220.5C 63.0645,204.354 71.3978,191.354 84.5,181.5 Z"/></g>
<g><path style="opacity:1" fill="#326794" d="M 111.5,229.5 C 113.305,225.227 115.639,221.227 118.5,217.5C 114.217,216.508 109.884,216.174 105.5,216.5C 106.189,209.055 107.522,201.722 109.5,194.5C 109.333,193.5 109.167,192.5 109,191.5C 108.34,193.324 107.173,194.657 105.5,195.5C 104.637,191.838 105.97,189.672 109.5,189C 110.362,184.909 112.029,184.743 114.5,188.5C 113.478,189.354 112.645,190.354 112,191.5C 110.499,199.267 108.999,206.934 107.5,214.5C 111.514,214.334 115.514,214.501 119.5,215C 119.957,215.414 120.291,215.914 120.5,216.5C 118.996,221.185 116.83,225.519 114,229.5C 113.23,230.598 112.397,230.598 111.5,229.5 Z"/></g>
<g><path style="opacity:1" fill="#7ca5bf" d="M 403.5,214.5 C 400.14,214.616 396.807,214.949 393.5,215.5C 396.708,213.469 400.041,213.135 403.5,214.5 Z"/></g>
<g><path style="opacity:1" fill="#406d99" d="M 266.5,223.5 C 263.239,220.759 259.572,218.592 255.5,217C 250.472,216.412 245.472,216.578 240.5,217.5C 247.182,212.36 254.182,212.194 261.5,217C 263.79,218.777 265.457,220.944 266.5,223.5 Z"/></g>
<g><path style="opacity:1" fill="#396a98" d="M 403.5,214.5 C 410.244,216.246 414.244,220.579 415.5,227.5C 413.328,226.584 411.994,224.917 411.5,222.5C 408.702,220.87 406.035,219.037 403.5,217C 399.846,215.703 397.179,216.703 395.5,220C 399.152,220.499 402.818,220.665 406.5,220.5C 406.104,223.482 406.771,226.149 408.5,228.5C 408.192,229.308 407.692,229.975 407,230.5C 402.045,230.398 396.878,230.398 391.5,230.5C 391.698,226.252 392.698,222.252 394.5,218.5C 393.127,218.343 391.793,218.51 390.5,219C 382.574,228.816 382.574,238.649 390.5,248.5C 394.844,250.96 399.511,251.96 404.5,251.5C 394.122,254.318 386.956,250.652 383,240.5C 380.791,231.371 382.958,223.537 389.5,217C 390.745,216.209 392.078,215.709 393.5,215.5C 396.807,214.949 400.14,214.616 403.5,214.5 Z M 399.5,222.5 C 402.089,223.419 404.089,225.086 405.5,227.5C 401.541,228.66 397.541,228.827 393.5,228C 394.771,225.223 396.771,223.389 399.5,222.5 Z"/></g>
<g><path style="opacity:1" fill="#75a1c0" d="M 430.5,215.5 C 427.833,215.5 425.167,215.5 422.5,215.5C 422.818,220.032 422.485,224.366 421.5,228.5C 421.5,223.833 421.5,219.167 421.5,214.5C 424.713,214.19 427.713,214.523 430.5,215.5 Z"/></g>
<g><path style="opacity:1" fill="#486c8b" d="M 435.5,225.5 C 435.414,224.504 435.748,223.671 436.5,223C 438.473,222.505 440.473,222.338 442.5,222.5C 443.594,216.095 440.927,213.762 434.5,215.5C 437.055,213.382 439.888,213.049 443,214.5C 443.499,218.152 443.665,221.818 443.5,225.5C 440.803,224.37 438.137,224.37 435.5,225.5 Z"/></g>
<g><path style="opacity:1" fill="#396b99" d="M 217.5,223.5 C 219.554,224.609 221.721,225.609 224,226.5C 224.5,226.167 225,225.833 225.5,225.5C 224.846,223.885 224.346,222.218 224,220.5C 223.333,219.167 222.667,219.167 222,220.5C 220.881,219.448 220.381,218.281 220.5,217C 216.215,215.413 211.882,215.413 207.5,217C 205.266,218.75 202.932,220.25 200.5,221.5C 201.254,218.909 202.921,217.076 205.5,216C 215.551,211.361 223.551,213.694 229.5,223C 230.287,225.099 230.62,227.266 230.5,229.5C 224.371,230.788 220.037,228.788 217.5,223.5 Z"/></g>
<g><path style="opacity:1" fill="#30669b" d="M 372.5,244.5 C 371.865,241.507 371.699,238.507 372,235.5C 373.534,232.797 374.701,230.297 375.5,228C 375.167,227.667 374.833,227.333 374.5,227C 375.428,226.612 376.095,225.945 376.5,225C 374.489,224.59 372.489,223.424 370.5,221.5C 370.317,219.064 370.984,216.897 372.5,215C 375.5,214.333 378.5,214.333 381.5,215C 382.022,215.561 382.355,216.228 382.5,217C 379.264,226.33 375.931,235.497 372.5,244.5 Z"/></g>
<g><path style="opacity:1" fill="#21639b" d="M 430.5,215.5 C 430.351,216.552 430.517,217.552 431,218.5C 431.422,216.574 432.589,215.574 434.5,215.5C 440.927,213.762 443.594,216.095 442.5,222.5C 440.473,222.338 438.473,222.505 436.5,223C 435.748,223.671 435.414,224.504 435.5,225.5C 433.766,227.09 432.6,229.09 432,231.5C 431.5,238.158 431.334,244.825 431.5,251.5C 428.167,251.5 424.833,251.5 421.5,251.5C 421.5,243.833 421.5,236.167 421.5,228.5C 422.485,224.366 422.818,220.032 422.5,215.5C 425.167,215.5 427.833,215.5 430.5,215.5 Z"/></g>
<g><path style="opacity:1" fill="#336a9d" d="M 132.5,176.5 C 142.688,192.578 146.854,210.245 145,229.5C 143.821,236.174 141.321,242.174 137.5,247.5C 138.848,240.442 140.515,233.275 142.5,226C 142.326,218.547 142.159,211.047 142,203.5C 141.667,204.833 141.333,206.167 141,207.5C 140.08,207.07 139.247,206.736 138.5,206.5C 140.152,197.914 138.319,190.247 133,183.5C 132.503,181.19 132.337,178.857 132.5,176.5 Z"/></g>
<g><path style="opacity:1" fill="#2065a3" d="M 298.5,223.5 C 301.117,224.482 303.451,226.482 305.5,229.5C 307.324,232.968 308.324,236.635 308.5,240.5C 307.778,240.082 307.278,239.416 307,238.5C 306.535,239.931 305.701,241.097 304.5,242C 304.833,242.333 305.167,242.667 305.5,243C 303.963,244.11 303.297,245.61 303.5,247.5C 301.567,247.729 299.9,248.562 298.5,250C 294.167,250.667 289.833,250.667 285.5,250C 283.222,247.907 280.556,246.407 277.5,245.5C 276.833,244.833 276.167,244.167 275.5,243.5C 278.056,242.155 279.556,240.488 280,238.5C 281.28,238.613 282.113,239.28 282.5,240.5C 281.833,241.833 281.167,243.167 280.5,244.5C 283.513,245.133 286.346,246.133 289,247.5C 291.38,246.147 293.88,244.981 296.5,244C 297.252,243.329 297.586,242.496 297.5,241.5C 299.079,238.9 298.745,236.567 296.5,234.5C 289.475,232.271 282.808,229.271 276.5,225.5C 270.316,214.301 272.983,206.135 284.5,201C 292.368,199.181 299.201,201.014 305,206.5C 307.078,209.87 307.911,213.537 307.5,217.5C 304.482,217.665 301.482,217.498 298.5,217C 296.015,210.636 291.681,208.97 285.5,212C 283.185,214.476 283.518,216.809 286.5,219C 290.547,220.603 294.547,222.103 298.5,223.5 Z"/></g>
<g><path style="opacity:1" fill="#0762a6" d="M 343.5,222.5 C 343.666,231.173 343.5,239.84 343,248.5C 340.772,250.113 338.272,250.78 335.5,250.5C 335.439,248.408 334.439,246.908 332.5,246C 334.291,243.586 335.957,241.086 337.5,238.5C 336.995,237.081 335.995,236.415 334.5,236.5C 331.43,236.368 328.43,236.701 325.5,237.5C 324.833,237.5 324.167,237.5 323.5,237.5C 322.853,238.274 322.52,239.274 322.5,240.5C 324.059,243.63 325.059,246.964 325.5,250.5C 322.518,250.037 319.518,249.704 316.5,249.5C 316.364,246.65 316.031,243.817 315.5,241C 315.4,237.196 317.066,234.529 320.5,233C 325.598,232.523 330.265,231.356 334.5,229.5C 334.986,227.048 334.986,224.382 334.5,221.5C 330.486,221.334 326.486,221.501 322.5,222C 321.745,225.207 319.745,226.707 316.5,226.5C 316.569,220.597 319.569,217.43 325.5,217C 331.195,215.344 335.862,216.677 339.5,221C 340.745,221.791 342.078,222.291 343.5,222.5 Z M 334.5,236.5 C 333.803,243.145 330.47,245.145 324.5,242.5C 324.366,240.708 324.699,239.042 325.5,237.5C 328.43,236.701 331.43,236.368 334.5,236.5 Z"/></g>
<g><path style="opacity:1" fill="#0862a6" d="M 266.5,223.5 C 268.074,225.102 268.741,227.102 268.5,229.5C 268.539,244.405 261.206,251.238 246.5,250C 244.403,248.39 242.07,247.223 239.5,246.5C 238.926,244.941 238.26,243.441 237.5,242C 237.833,241.667 238.167,241.333 238.5,241C 237.552,240.517 236.552,240.351 235.5,240.5C 235.352,235.799 235.685,231.132 236.5,226.5C 236.708,224.15 237.875,222.484 240,221.5C 240.49,220.207 240.657,218.873 240.5,217.5C 245.472,216.578 250.472,216.412 255.5,217C 259.572,218.592 263.239,220.759 266.5,223.5 Z M 248.5,223.5 C 255.332,223.501 258.665,227.001 258.5,234C 258.503,239.167 256.003,242.333 251,243.5C 245.805,241.966 243.305,238.466 243.5,233C 243.772,228.956 245.439,225.789 248.5,223.5 Z"/></g>
<g><path style="opacity:1" fill="#40709c" d="M 343.5,222.5 C 342.078,222.291 340.745,221.791 339.5,221C 335.862,216.677 331.195,215.344 325.5,217C 319.569,217.43 316.569,220.597 316.5,226.5C 319.745,226.707 321.745,225.207 322.5,222C 326.486,221.501 330.486,221.334 334.5,221.5C 334.986,224.382 334.986,227.048 334.5,229.5C 333.787,223.668 330.787,221.835 325.5,224C 324.707,225.085 324.04,226.252 323.5,227.5C 320.572,228.484 317.572,228.817 314.5,228.5C 313.756,220.402 317.423,215.568 325.5,214C 331.74,212.859 337.24,214.359 342,218.5C 342.791,219.745 343.291,221.078 343.5,222.5 Z"/></g>
<g><path style="opacity:1" fill="#3b6a96" d="M 240.5,217.5 C 240.657,218.873 240.49,220.207 240,221.5C 237.875,222.484 236.708,224.15 236.5,226.5C 235.685,231.132 235.352,235.799 235.5,240.5C 236.552,240.351 237.552,240.517 238.5,241C 238.167,241.333 237.833,241.667 237.5,242C 238.26,243.441 238.926,244.941 239.5,246.5C 242.07,247.223 244.403,248.39 246.5,250C 261.206,251.238 268.539,244.405 268.5,229.5C 269.592,247.883 260.925,255.05 242.5,251C 232.571,243.948 230.071,234.781 235,223.5C 236.331,221.004 238.164,219.004 240.5,217.5 Z"/></g>
<g><path style="opacity:1" fill="#afcadc" d="M 96.5,226.5 C 97.5676,225.566 98.901,225.232 100.5,225.5C 100.784,227.415 100.451,229.081 99.5,230.5C 99.5,229.167 99.5,227.833 99.5,226.5C 98.5,226.5 97.5,226.5 96.5,226.5 Z"/></g>
<g><path style="opacity:1" fill="#1162a2" d="M 172.5,212.5 C 172.711,214.934 172.378,217.601 171.5,220.5C 177.798,221.496 184.132,221.83 190.5,221.5C 190.5,224.833 190.5,228.167 190.5,231.5C 184.5,231.5 178.5,231.5 172.5,231.5C 171.518,234.962 171.185,238.629 171.5,242.5C 177.979,243.491 184.646,243.824 191.5,243.5C 191.5,245.833 191.5,248.167 191.5,250.5C 182.167,250.5 172.833,250.5 163.5,250.5C 162.546,234.869 162.213,219.202 162.5,203.5C 172.167,203.5 181.833,203.5 191.5,203.5C 191.5,205.833 191.5,208.167 191.5,210.5C 184.825,210.334 178.158,210.5 171.5,211C 172.056,211.383 172.389,211.883 172.5,212.5 Z"/></g>
<g><path style="opacity:1" fill="#5e87a8" d="M 298.5,223.5 C 307.277,226.062 310.61,231.728 308.5,240.5C 308.324,236.635 307.324,232.968 305.5,229.5C 303.451,226.482 301.117,224.482 298.5,223.5 Z"/></g>
<g><path style="opacity:1" fill="#416f97" d="M 367.5,229.5 C 367.816,232.978 367.316,236.312 366,239.5C 364.667,240.833 363.333,240.833 362,239.5C 359.583,232.231 357.75,224.898 356.5,217.5C 354.123,217.784 351.956,217.784 350,217.5C 349.5,218 349,218.5 348.5,219C 349.144,221.74 350.311,224.24 352,226.5C 352.497,229.146 352.664,231.813 352.5,234.5C 349.514,228.203 347.514,221.536 346.5,214.5C 350.106,214.211 353.606,214.544 357,215.5C 359.333,222.833 361.667,230.167 364,237.5C 365.719,234.975 366.886,232.308 367.5,229.5 Z"/></g>
<g><path style="opacity:1" fill="#0363ad" d="M 423.5,216.5 C 425.5,216.5 427.5,216.5 429.5,216.5C 430.608,218.695 430.441,220.695 429,222.5C 428.097,230.146 427.43,237.812 427,245.5C 426.751,246.624 426.251,247.624 425.5,248.5C 423.959,242.77 422.959,236.937 422.5,231C 423.469,226.263 423.803,221.43 423.5,216.5 Z"/></g>
<g><path style="opacity:1" fill="#3b6993" d="M 334.5,229.5 C 330.265,231.356 325.598,232.523 320.5,233C 317.066,234.529 315.4,237.196 315.5,241C 316.031,243.817 316.364,246.65 316.5,249.5C 311.757,245.096 311.257,240.096 315,234.5C 320.729,230.076 327.229,228.409 334.5,229.5 Z"/></g>
<g><path style="opacity:1" fill="#6a96ab" d="M 59.5,220.5 C 59.5,226.833 59.5,233.167 59.5,239.5C 57.5378,233.02 57.5378,226.687 59.5,220.5 Z"/></g>
<g><path style="opacity:1" fill="#20639f" d="M 415.5,227.5 C 416.657,230.307 416.657,232.974 415.5,235.5C 407.804,235.169 400.138,235.503 392.5,236.5C 392.624,237.107 392.957,237.44 393.5,237.5C 396.25,244.283 400.25,245.117 405.5,240C 408.76,239.216 411.927,239.383 415,240.5C 414.436,246.898 410.936,250.565 404.5,251.5C 399.511,251.96 394.844,250.96 390.5,248.5C 382.574,238.649 382.574,228.816 390.5,219C 391.793,218.51 393.127,218.343 394.5,218.5C 392.698,222.252 391.698,226.252 391.5,230.5C 396.878,230.398 402.045,230.398 407,230.5C 407.692,229.975 408.192,229.308 408.5,228.5C 406.771,226.149 406.104,223.482 406.5,220.5C 402.818,220.665 399.152,220.499 395.5,220C 397.179,216.703 399.846,215.703 403.5,217C 406.035,219.037 408.702,220.87 411.5,222.5C 411.994,224.917 413.328,226.584 415.5,227.5 Z M 399.5,222.5 C 396.771,223.389 394.771,225.223 393.5,228C 397.541,228.827 401.541,228.66 405.5,227.5C 404.089,225.086 402.089,223.419 399.5,222.5 Z"/></g>
<g><path style="opacity:1" fill="#a0c0dc" d="M 415.5,235.5 C 408.167,236.167 400.833,236.833 393.5,237.5C 392.957,237.44 392.624,237.107 392.5,236.5C 400.138,235.503 407.804,235.169 415.5,235.5 Z"/></g>
<g><path style="opacity:1" fill="#1b63a3" d="M 217.5,223.5 C 210.334,223.169 207,226.669 207.5,234C 207.268,240.267 210.268,243.434 216.5,243.5C 218.958,243.773 220.625,242.773 221.5,240.5C 223.743,239.526 226.076,239.192 228.5,239.5C 228.466,243.309 226.466,245.143 222.5,245C 221.87,246.892 220.87,248.559 219.5,250C 216.167,250.667 212.833,250.667 209.5,250C 207.138,248.269 204.471,247.435 201.5,247.5C 199.827,246.657 198.66,245.324 198,243.5C 195.132,236.938 195.132,230.271 198,223.5C 198.417,222.244 199.25,221.577 200.5,221.5C 202.932,220.25 205.266,218.75 207.5,217C 211.882,215.413 216.215,215.413 220.5,217C 220.381,218.281 220.881,219.448 222,220.5C 222.667,219.167 223.333,219.167 224,220.5C 224.346,222.218 224.846,223.885 225.5,225.5C 225,225.833 224.5,226.167 224,226.5C 221.721,225.609 219.554,224.609 217.5,223.5 Z"/></g>
<g><path style="opacity:1" fill="#0e61a3" d="M 367.5,229.5 C 367.733,226.458 368.733,223.792 370.5,221.5C 372.489,223.424 374.489,224.59 376.5,225C 376.095,225.945 375.428,226.612 374.5,227C 374.833,227.333 375.167,227.667 375.5,228C 374.701,230.297 373.534,232.797 372,235.5C 371.699,238.507 371.865,241.507 372.5,244.5C 372.5,244.833 372.5,245.167 372.5,245.5C 369.916,246.048 368.916,247.715 369.5,250.5C 366.167,250.5 362.833,250.5 359.5,250.5C 359.077,245.136 357.577,240.136 355,235.5C 354.329,234.748 353.496,234.414 352.5,234.5C 352.664,231.813 352.497,229.146 352,226.5C 350.311,224.24 349.144,221.74 348.5,219C 349,218.5 349.5,218 350,217.5C 351.956,217.784 354.123,217.784 356.5,217.5C 357.75,224.898 359.583,232.231 362,239.5C 363.333,240.833 364.667,240.833 366,239.5C 367.316,236.312 367.816,232.978 367.5,229.5 Z"/></g>
<g><path style="opacity:1" fill="#266397" d="M 86.5,226.5 C 89.8333,226.5 93.1667,226.5 96.5,226.5C 97.5,226.5 98.5,226.5 99.5,226.5C 99.5,227.833 99.5,229.167 99.5,230.5C 98.5005,235.832 97.5005,241.165 96.5,246.5C 95.8333,247.167 95.1667,247.833 94.5,248.5C 95.0653,243.678 94.3987,239.178 92.5,235C 94.8598,233.635 96.5265,231.635 97.5,229C 94.5,228.667 91.5,228.333 88.5,228C 87.5842,227.722 86.9175,227.222 86.5,226.5 Z"/></g>
<g><path style="opacity:1" fill="#aecae5" d="M 172.5,231.5 C 172.5,234.833 172.5,238.167 172.5,241.5C 179.5,241.5 186.5,241.5 193.5,241.5C 193.813,245.042 193.479,248.375 192.5,251.5C 192.5,248.5 192.5,245.5 192.5,242.5C 185.5,242.5 178.5,242.5 171.5,242.5C 171.185,238.629 171.518,234.962 172.5,231.5 Z"/></g>
<g><path style="opacity:1" fill="#306495" d="M 248.5,221.5 C 253.287,221.146 257.121,222.812 260,226.5C 260.393,231.869 260.559,237.035 260.5,242C 255.949,244.866 250.949,246.032 245.5,245.5C 245.5,244.167 245.5,242.833 245.5,241.5C 244.5,241.5 243.5,241.5 242.5,241.5C 242.761,237.508 242.094,233.674 240.5,230C 242.346,226.322 245.013,223.489 248.5,221.5 Z M 248.5,223.5 C 245.439,225.789 243.772,228.956 243.5,233C 243.305,238.466 245.805,241.966 251,243.5C 256.003,242.333 258.503,239.167 258.5,234C 258.665,227.001 255.332,223.501 248.5,223.5 Z"/></g>
<g><path style="opacity:1" fill="#457094" d="M 352.5,234.5 C 353.496,234.414 354.329,234.748 355,235.5C 357.577,240.136 359.077,245.136 359.5,250.5C 362.833,250.5 366.167,250.5 369.5,250.5C 368.916,247.715 369.916,246.048 372.5,245.5C 371.841,247.138 371.174,248.805 370.5,250.5C 366.541,251.66 362.541,251.827 358.5,251C 356.395,245.515 354.395,240.015 352.5,234.5 Z"/></g>
<g><path style="opacity:1" fill="#3a6b9a" d="M 297.5,241.5 C 297.586,242.496 297.252,243.329 296.5,244C 293.88,244.981 291.38,246.147 289,247.5C 286.346,246.133 283.513,245.133 280.5,244.5C 281.167,243.167 281.833,241.833 282.5,240.5C 282.113,239.28 281.28,238.613 280,238.5C 279.556,240.488 278.056,242.155 275.5,243.5C 276.167,244.167 276.833,244.833 277.5,245.5C 280.556,246.407 283.222,247.907 285.5,250C 289.833,250.667 294.167,250.667 298.5,250C 299.9,248.562 301.567,247.729 303.5,247.5C 303.297,245.61 303.963,244.11 305.5,243C 305.167,242.667 304.833,242.333 304.5,242C 305.701,241.097 306.535,239.931 307,238.5C 307.278,239.416 307.778,240.082 308.5,240.5C 307.311,247.188 303.311,251.021 296.5,252C 287.32,254.008 279.82,251.508 274,244.5C 271.035,236.356 273.868,233.522 282.5,236C 285.646,242.907 290.646,244.74 297.5,241.5 Z"/></g>
<g><path style="opacity:1" fill="#3e709c" d="M 343.5,222.5 C 344.268,223.263 344.768,224.263 345,225.5C 345.5,234.16 345.666,242.827 345.5,251.5C 341.833,251.5 338.167,251.5 334.5,251.5C 334.557,247.867 333.557,247.7 331.5,251C 326.07,253.243 321.07,252.743 316.5,249.5C 319.518,249.704 322.518,250.037 325.5,250.5C 325.059,246.964 324.059,243.63 322.5,240.5C 322.52,239.274 322.853,238.274 323.5,237.5C 323.216,239.415 323.549,241.081 324.5,242.5C 330.47,245.145 333.803,243.145 334.5,236.5C 335.995,236.415 336.995,237.081 337.5,238.5C 335.957,241.086 334.291,243.586 332.5,246C 334.439,246.908 335.439,248.408 335.5,250.5C 338.272,250.78 340.772,250.113 343,248.5C 343.5,239.84 343.666,231.173 343.5,222.5 Z"/></g>
<g><path style="opacity:1" fill="#b3dbe9" d="M 323.5,237.5 C 324.167,237.5 324.833,237.5 325.5,237.5C 324.699,239.042 324.366,240.708 324.5,242.5C 323.549,241.081 323.216,239.415 323.5,237.5 Z"/></g>
<g><path style="opacity:1" fill="#44739a" d="M 201.5,247.5 C 204.471,247.435 207.138,248.269 209.5,250C 212.833,250.667 216.167,250.667 219.5,250C 220.87,248.559 221.87,246.892 222.5,245C 226.466,245.143 228.466,243.309 228.5,239.5C 226.076,239.192 223.743,239.526 221.5,240.5C 220.625,242.773 218.958,243.773 216.5,243.5C 219.42,237.73 223.92,236.063 230,238.5C 230.222,244.213 227.722,248.379 222.5,251C 216.844,252.919 211.178,252.919 205.5,251C 203.907,250.051 202.574,248.885 201.5,247.5 Z"/></g>
<g><path style="opacity:1" fill="#83abc5" d="M 96.5,246.5 C 95.7093,248.691 95.7093,250.691 96.5,252.5C 96.2172,253.289 95.7172,253.956 95,254.5C 94.5045,252.527 94.3379,250.527 94.5,248.5C 95.1667,247.833 95.8333,247.167 96.5,246.5 Z"/></g>
<g><path style="opacity:1" fill="#416991" d="M 172.5,212.5 C 172.389,211.883 172.056,211.383 171.5,211C 178.158,210.5 184.825,210.334 191.5,210.5C 191.5,208.167 191.5,205.833 191.5,203.5C 181.833,203.5 172.167,203.5 162.5,203.5C 162.213,219.202 162.546,234.869 163.5,250.5C 172.833,250.5 182.167,250.5 191.5,250.5C 191.5,248.167 191.5,245.833 191.5,243.5C 184.646,243.824 177.979,243.491 171.5,242.5C 178.5,242.5 185.5,242.5 192.5,242.5C 192.5,245.5 192.5,248.5 192.5,251.5C 182.167,251.5 171.833,251.5 161.5,251.5C 161.5,234.833 161.5,218.167 161.5,201.5C 171.839,201.334 182.172,201.5 192.5,202C 193.833,205.333 193.833,208.667 192.5,212C 185.842,212.5 179.175,212.666 172.5,212.5 Z"/></g>
<g><path style="opacity:1" fill="#2d649a" d="M 111.5,229.5 C 108.271,236.946 104.271,244.113 99.5,251C 100.167,252.333 101.167,253.333 102.5,254C 100.594,255.993 99.4273,255.493 99,252.5C 97.6667,254.5 96,256.167 94,257.5C 90.6452,254.074 90.8119,251.074 94.5,248.5C 94.3379,250.527 94.5045,252.527 95,254.5C 95.7172,253.956 96.2172,253.289 96.5,252.5C 100.755,244.318 105.755,236.651 111.5,229.5 Z"/></g>
<g><path style="opacity:1" fill="#4d78a2" d="M 137.5,247.5 C 133.554,255.779 127.554,262.113 119.5,266.5C 119.703,264.956 120.37,263.622 121.5,262.5C 126.617,260.386 129.951,256.719 131.5,251.5C 132.5,251.5 133.5,251.5 134.5,251.5C 134.201,249.396 134.534,247.396 135.5,245.5C 136.182,246.243 136.849,246.909 137.5,247.5 Z"/></g>
<g><path style="opacity:1" fill="#2c6ba6" d="M 62.5,247.5 C 64.8325,250.088 66.6658,253.088 68,256.5C 71.0354,255.816 73.3687,254.149 75,251.5C 77.0149,253.478 76.8483,255.312 74.5,257C 75,257.5 75.5,258 76,258.5C 76.8373,256.993 78.0039,256.493 79.5,257C 80.0242,259.559 79.3575,262.059 77.5,264.5C 78.1776,266.516 78.8443,268.516 79.5,270.5C 71.1321,264.737 65.4655,257.071 62.5,247.5 Z"/></g>
<g><path style="opacity:1" fill="#8eb0c3" d="M 201.5,269.5 C 197.833,269.5 194.167,269.5 190.5,269.5C 190.784,271.415 190.451,273.081 189.5,274.5C 189.5,272.5 189.5,270.5 189.5,268.5C 193.702,268.183 197.702,268.517 201.5,269.5 Z"/></g>
<g><path style="opacity:1" fill="#9db8c8" d="M 370.5,270.5 C 368.274,268.82 366.607,269.153 365.5,271.5C 364.596,270.791 364.263,269.791 364.5,268.5C 367.082,268.025 369.082,268.692 370.5,270.5 Z"/></g>
<g><path style="opacity:1" fill="#2c6190" d="M 247.5,269.5 C 249.017,269.511 250.184,270.177 251,271.5C 252.183,275.274 251.349,278.441 248.5,281C 250.219,282.87 251.219,285.037 251.5,287.5C 246.696,288.288 243.863,286.288 243,281.5C 242.505,283.473 242.338,285.473 242.5,287.5C 240.833,287.5 239.167,287.5 237.5,287.5C 237.5,281.5 237.5,275.5 237.5,269.5C 240.833,269.5 244.167,269.5 247.5,269.5 Z M 242.5,273.5 C 247.536,274.505 247.536,275.838 242.5,277.5C 242.5,276.167 242.5,274.833 242.5,273.5 Z"/></g>
<g><path style="opacity:1" fill="#406c93" d="M 323.5,267.5 C 327.728,267.773 330.728,269.773 332.5,273.5C 332,274.881 331,275.547 329.5,275.5C 327.896,275.061 326.396,274.394 325,273.5C 324.5,273.833 324,274.167 323.5,274.5C 326.742,275.52 329.575,277.187 332,279.5C 333.157,283.346 331.991,286.179 328.5,288C 323.261,289.53 319.261,288.03 316.5,283.5C 317.436,282.026 318.77,281.026 320.5,280.5C 322.296,283.7 324.629,284.2 327.5,282C 323.963,280.719 320.796,278.886 318,276.5C 317.305,271.882 319.138,268.882 323.5,267.5 Z"/></g>
<g><path style="opacity:1" fill="#3f6a8f" d="M 398.5,267.5 C 403.463,267.458 406.797,269.791 408.5,274.5C 408,275.881 407,276.547 405.5,276.5C 403.783,275.283 401.95,274.283 400,273.5C 399.228,273.645 398.561,273.978 398,274.5C 397.223,277.429 397.39,280.263 398.5,283C 401.343,283.915 403.51,283.081 405,280.5C 409.023,281.618 409.523,283.618 406.5,286.5C 399.726,290.24 394.892,288.573 392,281.5C 390.835,275.117 393.001,270.451 398.5,267.5 Z"/></g>
<g><path style="opacity:1" fill="#5d7f9e" d="M 378.5,279.5 C 379.363,277.105 379.363,274.771 378.5,272.5C 377.422,274.461 376.089,276.128 374.5,277.5C 374.826,274.689 375.659,272.022 377,269.5C 379.2,268.01 381.034,268.343 382.5,270.5C 381.531,273.769 380.198,276.769 378.5,279.5 Z"/></g>
<g><path style="opacity:1" fill="#527393" d="M 384.5,268.5 C 386.144,268.286 387.644,268.62 389,269.5C 389.667,275.5 389.667,281.5 389,287.5C 387.542,288.747 386.042,288.747 384.5,287.5C 383.21,281.112 383.21,274.778 384.5,268.5 Z"/></g>
<g><path style="opacity:1" fill="#a2c2d1" d="M 417.5,268.5 C 419.5,268.5 421.5,268.5 423.5,268.5C 423.5,270.167 423.5,271.833 423.5,273.5C 420.833,273.5 418.167,273.5 415.5,273.5C 417.607,272.532 419.941,272.198 422.5,272.5C 422.5,271.5 422.5,270.5 422.5,269.5C 420.585,269.784 418.919,269.451 417.5,268.5 Z"/></g>
<g><path style="opacity:1" fill="#2f648d" d="M 417.5,268.5 C 418.919,269.451 420.585,269.784 422.5,269.5C 422.5,270.5 422.5,271.5 422.5,272.5C 419.941,272.198 417.607,272.532 415.5,273.5C 414.596,274.209 414.263,275.209 414.5,276.5C 416.5,276.5 418.5,276.5 420.5,276.5C 420.5,277.5 420.5,278.5 420.5,279.5C 418.585,279.216 416.919,279.549 415.5,280.5C 415.5,281.5 415.5,282.5 415.5,283.5C 418.167,283.5 420.833,283.5 423.5,283.5C 423.5,284.833 423.5,286.167 423.5,287.5C 419.181,288.674 414.847,288.674 410.5,287.5C 410.726,281.52 410.893,275.52 411,269.5C 413.041,268.577 415.208,268.244 417.5,268.5 Z"/></g>
<g><path style="opacity:1" fill="#396892" d="M 234.5,272.5 C 232.833,272.5 231.167,272.5 229.5,272.5C 229.5,277.5 229.5,282.5 229.5,287.5C 228.687,288.653 227.687,288.653 226.5,287.5C 225.507,282.88 225.173,278.214 225.5,273.5C 224.167,273.5 222.833,273.5 221.5,273.5C 221.5,271.833 221.5,270.167 221.5,268.5C 225.846,268.334 230.179,268.501 234.5,269C 235.791,270.292 235.791,271.458 234.5,272.5 Z"/></g>
<g><path style="opacity:1" fill="#b4cee9" d="M 115.5,269.5 C 115.5,274.833 115.5,280.167 115.5,285.5C 118.833,285.5 122.167,285.5 125.5,285.5C 125.181,280.637 125.514,275.97 126.5,271.5C 126.5,276.5 126.5,281.5 126.5,286.5C 122.5,286.5 118.5,286.5 114.5,286.5C 114.178,280.642 114.511,274.975 115.5,269.5 Z"/></g>
<g><path style="opacity:1" fill="#84a9c3" d="M 234.5,272.5 C 233.432,273.434 232.099,273.768 230.5,273.5C 230.819,278.363 230.486,283.03 229.5,287.5C 229.5,282.5 229.5,277.5 229.5,272.5C 231.167,272.5 232.833,272.5 234.5,272.5 Z"/></g>
<g><path style="opacity:1" fill="#9bc2dd" d="M 165.5,273.5 C 167.156,275.06 169.156,276.06 171.5,276.5C 169.167,276.5 166.833,276.5 164.5,276.5C 164.263,275.209 164.596,274.209 165.5,273.5 Z"/></g>
<g><path style="opacity:1" fill="#608daa" d="M 175.5,270.5 C 176.488,275.64 176.821,280.974 176.5,286.5C 178.547,286.489 180.547,286.156 182.5,285.5C 183.739,285.942 184.739,286.609 185.5,287.5C 182.416,287.729 179.082,287.729 175.5,287.5C 175.5,281.833 175.5,276.167 175.5,270.5 Z"/></g>
<g><path style="opacity:1" fill="#99b8cc" d="M 247.5,269.5 C 244.167,269.5 240.833,269.5 237.5,269.5C 237.5,275.5 237.5,281.5 237.5,287.5C 236.51,281.355 236.177,275.022 236.5,268.5C 240.371,268.185 244.038,268.518 247.5,269.5 Z"/></g>
<g><path style="opacity:1" fill="#477095" d="M 254.5,268.5 C 256.144,268.286 257.644,268.62 259,269.5C 259.499,275.491 259.666,281.491 259.5,287.5C 257.833,287.5 256.167,287.5 254.5,287.5C 254.5,281.167 254.5,274.833 254.5,268.5 Z"/></g>
<g><path style="opacity:1" fill="#9ebdcc" d="M 339.5,275.5 C 341.833,275.5 344.167,275.5 346.5,275.5C 346.5,277.167 346.5,278.833 346.5,280.5C 344.167,280.5 341.833,280.5 339.5,280.5C 341.265,279.539 343.265,279.205 345.5,279.5C 345.5,278.5 345.5,277.5 345.5,276.5C 343.265,276.795 341.265,276.461 339.5,275.5 Z"/></g>
<g><path style="opacity:1" fill="#416d93" d="M 434.5,275.5 C 437.51,276.852 439.51,279.185 440.5,282.5C 438.05,288.155 433.884,289.822 428,287.5C 425.536,286.237 424.37,284.237 424.5,281.5C 427.432,281.284 430.098,281.951 432.5,283.5C 433.167,283.167 433.833,282.833 434.5,282.5C 431.695,280.737 428.862,279.07 426,277.5C 424.307,272.243 426.307,268.91 432,267.5C 436.905,268.046 439.071,270.546 438.5,275C 437.207,275.49 435.873,275.657 434.5,275.5 Z M 434.5,275.5 C 433.022,275.762 431.689,275.429 430.5,274.5C 431.167,274.167 431.833,273.833 432.5,273.5C 433.713,273.747 434.38,274.414 434.5,275.5 Z"/></g>
<g><path style="opacity:1" fill="#1c507b" d="M 180.5,283.5 C 182.265,284.461 184.265,284.795 186.5,284.5C 186.5,285.5 186.5,286.5 186.5,287.5C 186.167,287.5 185.833,287.5 185.5,287.5C 184.739,286.609 183.739,285.942 182.5,285.5C 180.547,286.156 178.547,286.489 176.5,286.5C 176.821,280.974 176.488,275.64 175.5,270.5C 176.552,268.744 178.219,268.077 180.5,268.5C 180.5,273.5 180.5,278.5 180.5,283.5 Z"/></g>
<g><path style="opacity:1" fill="#346891" d="M 201.5,269.5 C 201.598,270.549 201.598,271.715 201.5,273C 198.639,272.97 196.305,273.803 194.5,275.5C 196.265,276.461 198.265,276.795 200.5,276.5C 200.5,277.5 200.5,278.5 200.5,279.5C 198.735,280.461 196.735,280.795 194.5,280.5C 194.5,281.5 194.5,282.5 194.5,283.5C 196.833,283.5 199.167,283.5 201.5,283.5C 201.5,284.833 201.5,286.167 201.5,287.5C 197.5,287.5 193.5,287.5 189.5,287.5C 189.5,283.167 189.5,278.833 189.5,274.5C 190.451,273.081 190.784,271.415 190.5,269.5C 194.167,269.5 197.833,269.5 201.5,269.5 Z"/></g>
<g><path style="opacity:1" fill="#b7d6de" d="M 194.5,275.5 C 196.833,275.5 199.167,275.5 201.5,275.5C 201.768,277.099 201.434,278.432 200.5,279.5C 200.5,278.5 200.5,277.5 200.5,276.5C 198.265,276.795 196.265,276.461 194.5,275.5 Z"/></g>
<g><path style="opacity:1" fill="#33658d" d="M 370.5,270.5 C 371.207,273.643 372.373,276.643 374,279.5C 374.464,278.906 374.631,278.239 374.5,277.5C 376.089,276.128 377.422,274.461 378.5,272.5C 379.363,274.771 379.363,277.105 378.5,279.5C 378.589,283.323 377.089,286.323 374,288.5C 372.324,287.939 370.991,286.939 370,285.5C 368.199,280.905 366.699,276.239 365.5,271.5C 366.607,269.153 368.274,268.82 370.5,270.5 Z"/></g>
<g><path style="opacity:1" fill="#7fa5bd" d="M 165.5,273.5 C 167.607,272.532 169.941,272.198 172.5,272.5C 172.5,271.5 172.5,270.5 172.5,269.5C 168.833,269.5 165.167,269.5 161.5,269.5C 161.5,275.5 161.5,281.5 161.5,287.5C 160.51,281.355 160.177,275.022 160.5,268.5C 164.833,268.5 169.167,268.5 173.5,268.5C 173.5,270.167 173.5,271.833 173.5,273.5C 170.833,273.5 168.167,273.5 165.5,273.5 Z"/></g>
<g><path style="opacity:1" fill="#1c5481" d="M 165.5,273.5 C 164.596,274.209 164.263,275.209 164.5,276.5C 166.833,276.5 169.167,276.5 171.5,276.5C 171.5,277.5 171.5,278.5 171.5,279.5C 169.167,279.5 166.833,279.5 164.5,279.5C 164.5,281.167 164.5,282.833 164.5,284.5C 167.167,284.5 169.833,284.5 172.5,284.5C 172.5,285.5 172.5,286.5 172.5,287.5C 168.833,287.5 165.167,287.5 161.5,287.5C 161.5,281.5 161.5,275.5 161.5,269.5C 165.167,269.5 168.833,269.5 172.5,269.5C 172.5,270.5 172.5,271.5 172.5,272.5C 169.941,272.198 167.607,272.532 165.5,273.5 Z"/></g>
<g><path style="opacity:1" fill="#5e84a2" d="M 360.5,269.5 C 357.167,269.5 353.833,269.5 350.5,269.5C 350.5,275.167 350.5,280.833 350.5,286.5C 351.5,286.5 352.5,286.5 353.5,286.5C 353.216,284.585 353.549,282.919 354.5,281.5C 354.5,283.5 354.5,285.5 354.5,287.5C 352.833,287.5 351.167,287.5 349.5,287.5C 349.5,281.167 349.5,274.833 349.5,268.5C 353.371,268.185 357.038,268.518 360.5,269.5 Z"/></g>
<g><path style="opacity:1" fill="#809fb5" d="M 415.5,273.5 C 416.918,275.308 418.918,275.975 421.5,275.5C 421.966,277.201 421.966,278.701 421.5,280C 419.527,280.495 417.527,280.662 415.5,280.5C 416.919,279.549 418.585,279.216 420.5,279.5C 420.5,278.5 420.5,277.5 420.5,276.5C 418.5,276.5 416.5,276.5 414.5,276.5C 414.263,275.209 414.596,274.209 415.5,273.5 Z"/></g>
<g><path style="opacity:1" fill="#205886" d="M 346.5,269.5 C 346.5,270.833 346.5,272.167 346.5,273.5C 343.612,272.99 341.279,273.656 339.5,275.5C 341.265,276.461 343.265,276.795 345.5,276.5C 345.5,277.5 345.5,278.5 345.5,279.5C 343.265,279.205 341.265,279.539 339.5,280.5C 339.5,281.5 339.5,282.5 339.5,283.5C 338.735,284.66 337.735,285.66 336.5,286.5C 335.505,280.872 335.171,275.206 335.5,269.5C 339.167,269.5 342.833,269.5 346.5,269.5 Z"/></g>
<g><path style="opacity:1" fill="#29608c" d="M 360.5,269.5 C 361.496,269.414 362.329,269.748 363,270.5C 363.896,274.214 363.396,277.714 361.5,281C 363.013,282.879 363.679,285.046 363.5,287.5C 361.712,287.785 360.045,287.452 358.5,286.5C 357.511,284.414 356.178,282.747 354.5,281.5C 353.549,282.919 353.216,284.585 353.5,286.5C 352.5,286.5 351.5,286.5 350.5,286.5C 350.5,280.833 350.5,275.167 350.5,269.5C 353.833,269.5 357.167,269.5 360.5,269.5 Z M 354.5,273.5 C 360.888,274.475 360.888,275.808 354.5,277.5C 354.5,276.167 354.5,274.833 354.5,273.5 Z"/></g>
<g><path style="opacity:1" fill="#2e5f8d" d="M 309.5,284.5 C 309.64,286.124 308.973,287.29 307.5,288C 304.493,288.301 301.493,288.135 298.5,287.5C 298.5,281.5 298.5,275.5 298.5,269.5C 299.5,269.5 300.5,269.5 301.5,269.5C 301.5,274.5 301.5,279.5 301.5,284.5C 304.167,284.5 306.833,284.5 309.5,284.5 Z"/></g>
<g><path style="opacity:1" fill="#5a829e" d="M 309.5,284.5 C 306.833,284.5 304.167,284.5 301.5,284.5C 301.5,279.5 301.5,274.5 301.5,269.5C 300.5,269.5 299.5,269.5 298.5,269.5C 298.5,275.5 298.5,281.5 298.5,287.5C 297.51,281.355 297.177,275.022 297.5,268.5C 299.167,268.5 300.833,268.5 302.5,268.5C 302.5,273.5 302.5,278.5 302.5,283.5C 305.059,283.198 307.393,283.532 309.5,284.5 Z"/></g>
<g><path style="opacity:1" fill="#3a6791" d="M 273.5,281.5 C 274.586,281.62 275.253,282.287 275.5,283.5C 274.775,284.867 274.108,286.2 273.5,287.5C 265.703,289.913 261.703,286.913 261.5,278.5C 262.005,269.925 266.338,266.758 274.5,269C 277.041,270.848 278.041,273.348 277.5,276.5C 274.731,276.2 272.231,275.2 270,273.5C 266.703,275.158 265.703,277.825 267,281.5C 269.201,284.037 271.368,284.037 273.5,281.5 Z"/></g>
<g><path style="opacity:1" fill="#66829a" d="M 273.5,281.5 C 276.994,280.165 278.16,281.499 277,285.5C 276.184,286.823 275.017,287.489 273.5,287.5C 274.108,286.2 274.775,284.867 275.5,283.5C 275.253,282.287 274.586,281.62 273.5,281.5 Z"/></g>
<g><path style="opacity:1" fill="#8ab0c6" d="M 171.5,279.5 C 169.735,280.461 167.735,280.795 165.5,280.5C 165.5,281.5 165.5,282.5 165.5,283.5C 168.167,283.5 170.833,283.5 173.5,283.5C 173.768,285.099 173.434,286.432 172.5,287.5C 172.5,286.5 172.5,285.5 172.5,284.5C 169.833,284.5 167.167,284.5 164.5,284.5C 164.5,282.833 164.5,281.167 164.5,279.5C 166.833,279.5 169.167,279.5 171.5,279.5 Z"/></g>
<g><path style="opacity:1" fill="#38678f" d="M 284.5,268.5 C 286.467,268.261 288.301,268.594 290,269.5C 291.837,275.519 293.67,281.519 295.5,287.5C 293.712,287.785 292.045,287.452 290.5,286.5C 290.167,284.833 289.167,283.833 287.5,283.5C 284.975,284.861 282.642,286.528 280.5,288.5C 278.616,287.307 278.116,285.641 279,283.5C 280.843,278.484 282.677,273.484 284.5,268.5 Z M 286.5,277.5 C 287.289,277.783 287.956,278.283 288.5,279C 287.184,279.528 286.517,279.028 286.5,277.5 Z"/></g>
<g><path style="opacity:1" fill="#92b8c5" d="M 180.5,283.5 C 182.833,283.5 185.167,283.5 187.5,283.5C 187.768,285.099 187.434,286.432 186.5,287.5C 186.5,286.5 186.5,285.5 186.5,284.5C 184.265,284.795 182.265,284.461 180.5,283.5 Z"/></g>
<g><path style="opacity:1" fill="#4a7096" d="M 210.5,267.5 C 215.476,267.475 218.809,269.808 220.5,274.5C 220,275.881 219,276.547 217.5,276.5C 212.792,271.794 209.792,272.627 208.5,279C 210.436,284.358 213.269,284.858 217,280.5C 218.621,280.725 219.788,281.558 220.5,283C 217.059,288.745 212.392,289.911 206.5,286.5C 202.003,278.832 203.336,272.498 210.5,267.5 Z"/></g>
<g><path style="opacity:1" fill="#547a9b" d="M 346.5,269.5 C 342.833,269.5 339.167,269.5 335.5,269.5C 335.171,275.206 335.505,280.872 336.5,286.5C 337.735,285.66 338.735,284.66 339.5,283.5C 341.833,283.5 344.167,283.5 346.5,283.5C 346.5,284.833 346.5,286.167 346.5,287.5C 342.521,288.625 338.521,288.625 334.5,287.5C 334.5,281.167 334.5,274.833 334.5,268.5C 338.702,268.183 342.702,268.517 346.5,269.5 Z"/></g>
<g><path style="opacity:1" fill="#236096" d="M 140.5,292.5 C 138.558,297.056 137.892,302.056 138.5,307.5C 137.35,313.982 133.683,318.315 127.5,320.5C 128.234,319.292 128.567,317.959 128.5,316.5C 131.642,316.201 133.809,314.534 135,311.5C 135.306,307.664 135.472,303.997 135.5,300.5C 134.68,298.889 133.346,298.222 131.5,298.5C 131.34,296.801 131.506,295.134 132,293.5C 132.667,292.167 133.333,292.167 134,293.5C 134.346,291.782 134.846,290.115 135.5,288.5C 134.066,287.77 132.9,286.77 132,285.5C 131.759,282.711 131.092,280.044 130,277.5C 129.246,280.818 128.08,283.818 126.5,286.5C 126.5,281.5 126.5,276.5 126.5,271.5C 127.636,267.287 129.803,266.62 133,269.5C 133.499,274.823 133.666,280.156 133.5,285.5C 136.187,285.336 138.854,285.503 141.5,286C 143.1,288.64 142.766,290.807 140.5,292.5 Z"/></g>
<g><path style="opacity:1" fill="#2b669c" d="M 107.5,282.5 C 107.5,279.833 107.5,277.167 107.5,274.5C 102.776,274.631 98.4431,275.964 94.5,278.5C 90.476,287.042 88.476,296.042 88.5,305.5C 88.5,308.167 88.5,310.833 88.5,313.5C 87.0783,313.291 85.745,312.791 84.5,312C 84.5409,307.71 84.8743,303.044 85.5,298C 85.3535,296.273 84.6869,296.106 83.5,297.5C 82.3372,302.802 82.1705,308.136 83,313.5C 84.5465,316.538 85.0465,319.538 84.5,322.5C 81.2238,316.88 79.8904,310.714 80.5,304C 80.2521,296.414 81.5854,289.247 84.5,282.5C 84.1463,286.637 84.6463,290.637 86,294.5C 87.5996,287.225 89.5996,279.892 92,272.5C 92.7387,273.574 93.7387,274.241 95,274.5C 99.3326,273.746 103.499,272.913 107.5,272C 108.82,275.601 108.82,279.101 107.5,282.5 Z"/></g>
<g><path style="opacity:1" fill="#9fc6df" d="M 140.5,292.5 C 139.879,297.602 139.213,302.602 138.5,307.5C 137.892,302.056 138.558,297.056 140.5,292.5 Z"/></g>
<g><path style="opacity:1" fill="#346492" d="M 107.5,284.5 C 108.267,285.172 108.934,286.005 109.5,287C 106.518,287.498 103.518,287.665 100.5,287.5C 100.128,290.022 100.961,292.022 103,293.5C 102.854,300.115 103.854,306.448 106,312.5C 108.783,313.641 110.95,315.475 112.5,318C 114.878,318.511 117.212,319.178 119.5,320C 117.333,324.663 113.666,327.163 108.5,327.5C 111.053,326.113 113.386,324.28 115.5,322C 109,319.5 104.5,315 102,308.5C 101.667,303.5 101.333,298.5 101,293.5C 98.5453,291.626 98.0453,289.293 99.5,286.5C 102.311,285.92 104.977,285.254 107.5,284.5 Z"/></g>
<g><path style="opacity:1" fill="#5782a4" d="M 88.5,305.5 C 88.9064,312.992 91.5731,319.659 96.5,325.5C 94.9582,324.699 93.2915,324.366 91.5,324.5C 90.3587,320.941 89.3587,317.274 88.5,313.5C 88.5,310.833 88.5,308.167 88.5,305.5 Z"/></g>
<g><path style="opacity:1" fill="#48749c" d="M 126.5,320.5 C 123.644,326.341 119.311,330.841 113.5,334C 107.628,336.141 101.961,335.974 96.5,333.5C 99.3189,333.869 102.152,334.202 105,334.5C 107.516,333.646 110.35,332.813 113.5,332C 118.456,329.732 121.123,325.898 121.5,320.5C 123.167,320.5 124.833,320.5 126.5,320.5 Z"/></g>
<g><path style="opacity:1" fill="#416f96" d="M 84.5,322.5 C 85.5,322.5 86.5,322.5 87.5,322.5C 88.5997,326.598 91.2664,328.932 95.5,329.5C 95.4326,330.959 95.7659,332.292 96.5,333.5C 90.5701,331.902 86.5701,328.235 84.5,322.5 Z"/></g>
</svg>
